<svg width="16" height="16" viewBox="0 0 16 16" fill="none" xmlns="http://www.w3.org/2000/svg">
<path d="M2.7 8.40001L7.2 11.9C7.35 12 7.55 12.05 7.75 11.95C7.9 11.85 8 11.7 8 11.5L8 9.00001L11.7 11.9C11.85 12 12.05 12.05 12.2 11.95C12.4 11.85 12.5 11.7 12.5 11.5L12.5 4.50001C12.5 4.30001 12.4 4.15001 12.2 4.05001C12.15 4.00001 12.05 4.00001 12 4.00001C11.9 4.00001 11.8 4.05001 11.7 4.10001L8 7.00001L8 4.50001C8 4.30001 7.9 4.15001 7.7 4.05001C7.65 4.00001 7.55 4.00001 7.5 4.00001C7.4 4.00001 7.3 4.05001 7.2 4.10001L2.7 7.60001C2.6 7.70001 2.5 7.85001 2.5 8.00001C2.5 8.15001 2.55 8.30001 2.7 8.40001Z" fill="black"/>
</svg>
