<svg width="48" height="48" viewBox="0 0 48 48" fill="none" xmlns="http://www.w3.org/2000/svg">
<path d="M4.5 15L24 27L43.5 15" stroke="white" stroke-width="2" stroke-miterlimit="10" stroke-linecap="round" stroke-linejoin="round"/>
<path d="M10.5 18.75V4.5C10.5 2.85 11.85 1.5 13.5 1.5H34.5C36.15 1.5 37.5 2.85 37.5 4.5V18.75" stroke="white" stroke-width="2" stroke-miterlimit="10" stroke-linecap="round" stroke-linejoin="round"/>
<path d="M37.5 7.5C40.8 7.5 43.5 10.2 43.5 13.5V34.5C43.5 37.8 40.8 40.5 37.5 40.5H10.5C7.2 40.5 4.5 37.8 4.5 34.5V13.5C4.5 10.2 7.2 7.5 10.5 7.5" stroke="white" stroke-width="2" stroke-miterlimit="10" stroke-linecap="round" stroke-linejoin="round"/>
<path d="M16.5 7.5H27" stroke="white" stroke-width="2" stroke-miterlimit="10" stroke-linecap="round" stroke-linejoin="round"/>
<path d="M16.5 13.5H21" stroke="white" stroke-width="2" stroke-miterlimit="10" stroke-linecap="round" stroke-linejoin="round"/>
</svg>
