<svg width="165" height="152" viewBox="0 0 165 152" fill="none" xmlns="http://www.w3.org/2000/svg">
<path d="M44.6347 82.6917C35.4016 82.6917 27.8428 75.1843 27.8428 66.014V16.6777C27.8428 7.50735 35.4016 0 44.6347 0C53.8678 0 61.4265 7.50735 61.4265 16.6777V66.014C61.4265 75.1843 53.8678 82.6917 44.6347 82.6917Z" fill="#FF5001"/>
<path d="M3.97072 81.8364C3.52422 80.8545 3.1096 79.8567 2.72688 78.843C3.1096 79.8567 3.52422 80.8545 3.97072 81.8364Z" fill="white"/>
<path d="M20.6987 100.969C19.7898 100.399 18.9127 99.7971 18.0516 99.1636C18.9127 99.7971 19.8057 100.399 20.6987 100.969Z" fill="white"/>
<path d="M9.83909 91.3076C9.12149 90.4207 8.43578 89.5021 7.78197 88.5518C8.43578 89.5021 9.12149 90.4207 9.83909 91.3076Z" fill="white"/>
<path d="M0.637868 71.0189C0.446508 69.8786 0.287042 68.7382 0.175415 67.582C0.287042 68.7382 0.446508 69.8944 0.637868 71.0189Z" fill="white"/>
<path d="M1.4352 74.7251C1.14817 73.6481 0.908965 72.5711 0.717606 71.4783C0.908965 72.5711 1.16411 73.6481 1.4352 74.7251Z" fill="white"/>
<path d="M2.55147 78.3362C2.18469 77.3226 1.86576 76.2773 1.56277 75.2319C1.86576 76.2773 2.18469 77.3226 2.55147 78.3362Z" fill="white"/>
<path d="M12.1832 93.9685C11.4019 93.1449 10.6524 92.3054 9.93477 91.4343C10.6524 92.3054 11.4019 93.1449 12.1832 93.9685Z" fill="white"/>
<path d="M7.67033 88.4092C7.03247 87.4747 6.44244 86.5086 5.86836 85.5266C6.44244 86.5086 7.03247 87.4747 7.67033 88.4092Z" fill="white"/>
<path d="M23.9678 102.854C23.011 102.347 22.0702 101.808 21.1453 101.238C22.0702 101.808 23.011 102.347 23.9678 102.854Z" fill="white"/>
<path d="M5.69296 85.2099C5.15077 84.2596 4.65642 83.2776 4.19397 82.2957C4.65642 83.2776 5.15077 84.2596 5.69296 85.2099Z" fill="white"/>
<path d="M17.637 98.8466C16.7918 98.1973 15.9467 97.5162 15.1493 96.8193C15.9467 97.5162 16.7918 98.1973 17.637 98.8466Z" fill="white"/>
<path d="M14.7825 96.5027C13.9693 95.7741 13.1879 95.0297 12.4224 94.2378C13.1879 95.0139 13.9693 95.7741 14.7825 96.5027Z" fill="white"/>
<path d="M90.274 113.006L160.535 98.0864L90.2899 113.006H90.274Z" fill="white"/>
<path d="M27.4123 104.469C26.3758 104.042 25.3711 103.567 24.3665 103.06C25.3711 103.567 26.3758 104.042 27.4123 104.469Z" fill="white"/>
<path d="M31.0162 105.8C29.884 105.435 28.7837 105.024 27.6993 104.58C28.7837 105.024 29.9 105.435 31.0162 105.8Z" fill="white"/>
<path d="M149.596 23.2506L92.0441 33.6722L149.596 23.2506Z" fill="white"/>
<path d="M0.159011 67.2811C0.0636044 66.0616 0 64.8262 0 63.5908C0 64.8262 0.0636044 66.0616 0.159011 67.2811Z" fill="white"/>
<path d="M34.5086 106.75C33.3444 106.481 32.1963 106.164 31.0641 105.816C32.1803 106.164 33.3285 106.481 34.5086 106.75Z" fill="white"/>
<path d="M15.1493 96.8195C15.0217 96.7086 14.9101 96.6136 14.7985 96.5027C14.9101 96.5977 15.0217 96.7086 15.1493 96.8195Z" fill="white"/>
<path d="M12.4224 94.2377C12.3427 94.1427 12.263 94.0635 12.1673 93.9685C12.263 94.0477 12.3427 94.1427 12.4224 94.2377Z" fill="white"/>
<path d="M31.0482 105.8C31.0322 105.8 31.0322 105.8 31.0162 105.784C31.0322 105.8 31.0482 105.8 31.0482 105.8Z" fill="white"/>
<path d="M24.3665 103.06C24.2389 102.996 24.0954 102.933 23.9678 102.854C24.1113 102.917 24.2389 102.996 24.3665 103.06Z" fill="white"/>
<path d="M27.6993 104.58C27.6037 104.548 27.508 104.501 27.4123 104.469C27.508 104.517 27.6037 104.548 27.6993 104.58Z" fill="white"/>
<path d="M21.1453 101.238C21.0017 101.143 20.8582 101.064 20.7147 100.969C20.8582 101.064 21.0017 101.159 21.1453 101.238Z" fill="white"/>
<path d="M18.0516 99.1634C17.9081 99.0526 17.7646 98.9575 17.637 98.8467C17.7805 98.9575 17.924 99.0526 18.0516 99.1634Z" fill="white"/>
<path d="M4.17802 82.2799C4.11424 82.1373 4.0345 81.979 3.97072 81.8364C4.0345 81.9948 4.11424 82.1373 4.17802 82.2799Z" fill="white"/>
<path d="M48.4778 150.495L87.6109 114.384C88.3604 113.687 89.2853 113.212 90.274 113.006L88.7431 113.323L48.4778 150.495Z" fill="white"/>
<path d="M0.191316 67.5819C0.175415 67.4869 0.175415 67.376 0.175415 67.281C0.175415 67.376 0.175415 67.4869 0.191316 67.5819Z" fill="white"/>
<path d="M2.74283 78.843C2.67904 78.6688 2.61525 78.5104 2.56741 78.3362C2.61525 78.5104 2.67904 78.6688 2.74283 78.843Z" fill="white"/>
<path d="M0.717369 71.4623C0.685566 71.3197 0.669665 71.1613 0.637863 71.0188C0.669665 71.1772 0.685566 71.3197 0.717369 71.4623Z" fill="white"/>
<path d="M7.78254 88.5533C7.75046 88.5054 7.71837 88.4574 7.68628 88.4094C7.70232 88.4574 7.75046 88.5054 7.78254 88.5533Z" fill="white"/>
<path d="M5.88432 85.5267C5.82054 85.4158 5.75675 85.305 5.69296 85.1941C5.7408 85.3208 5.82054 85.4158 5.88432 85.5267Z" fill="white"/>
<path d="M1.57835 75.2319C1.53065 75.0577 1.48294 74.8993 1.45114 74.7251C1.48294 74.8835 1.53065 75.0577 1.57835 75.2319Z" fill="white"/>
<path d="M9.93534 91.4197C9.90326 91.3877 9.87117 91.3397 9.83908 91.2917C9.87117 91.3397 9.90326 91.3877 9.93534 91.4197Z" fill="white"/>
<path d="M162.959 11.4669C161.683 10.3899 159.977 9.9464 158.334 10.2473L89.2693 22.7596L82.6036 23.9791C79.9246 24.4701 77.9632 26.7983 77.9632 29.5067V63.6065C77.9632 79.9516 65.9713 93.525 50.2798 96.2017C48.4459 96.5184 46.5642 96.7085 44.6347 96.7085C42.7051 96.7085 40.8234 96.5184 38.9896 96.2017C23.2821 93.5092 11.3062 79.9358 11.3062 63.5907V55.038C11.3062 51.5377 8.11685 48.8927 4.64048 49.5104C1.94549 50.0014 0 52.3138 0 55.038V63.5907C0 64.8419 0.0637866 66.0614 0.159467 67.281C0.175413 67.376 0.175413 67.4869 0.175413 67.5819C0.28704 68.7381 0.43056 69.8943 0.637866 71.0188C0.669759 71.1614 0.685706 71.3197 0.717599 71.4623C0.924906 72.5551 1.16411 73.648 1.4352 74.7091C1.48304 74.8833 1.51493 75.0417 1.56277 75.216C1.84981 76.2613 2.18469 77.3066 2.55146 78.3203C2.61525 78.4945 2.67904 78.6529 2.72688 78.8271C3.1096 79.8407 3.50826 80.8385 3.97072 81.8205C4.0345 81.9631 4.11424 82.1214 4.17802 82.264C4.64048 83.2618 5.15077 84.2279 5.67701 85.1782C5.74079 85.3208 5.82053 85.4158 5.88431 85.5267C6.44245 86.5086 7.04842 87.4748 7.68629 88.4092C7.71818 88.4568 7.75007 88.5043 7.78197 88.5518C8.43578 89.5021 9.12148 90.4207 9.83908 91.3076C9.87098 91.3393 9.90287 91.3868 9.93476 91.4343C10.6524 92.3055 11.4019 93.1607 12.1832 93.9685C12.263 94.0635 12.3427 94.1427 12.4384 94.2377C13.1879 95.0138 13.9852 95.774 14.7985 96.5026C14.9101 96.6135 15.0377 96.7243 15.1493 96.8194C15.9626 97.5321 16.7918 98.1973 17.637 98.8467C17.7805 98.9575 17.9081 99.0526 18.0516 99.1634C18.9127 99.797 19.7898 100.399 20.6988 100.969C20.8423 101.064 20.9858 101.143 21.1293 101.238C22.0542 101.808 22.9951 102.347 23.9519 102.854C24.0794 102.917 24.223 102.996 24.3505 103.06C25.3392 103.566 26.3598 104.042 27.3963 104.469C27.492 104.501 27.5877 104.548 27.6834 104.58C28.7678 105.024 29.884 105.435 31.0003 105.8C31.0162 105.8 31.0162 105.8 31.0322 105.816C32.1644 106.18 33.3126 106.481 34.4767 106.75C35.9438 107.098 37.4427 107.368 38.9577 107.558V112.246V146.393C38.9577 148.626 40.2812 150.638 42.3384 151.541C43.0719 151.842 43.8373 152 44.6028 152C46.0061 152 47.3775 151.477 48.4459 150.495L88.7272 113.339L90.258 113.022L160.503 98.0864C163.102 97.5479 164.968 95.2514 164.968 92.6064V15.7749C165 14.1119 164.251 12.528 162.959 11.4669ZM153.694 26.6399V84.3863V88.045L84.884 102.68C83.8794 102.885 82.9545 103.361 82.2209 104.042L50.2798 133.517V107.558C72.2383 104.786 89.2693 86.1285 89.2693 63.5907V36.9823V34.179L92.0441 33.6721L149.596 23.2506L153.694 22.5062V26.6399Z" fill="white"/>
<path d="M103.972 67.9462C106.561 67.9462 108.66 65.8614 108.66 63.2897C108.66 60.7181 106.561 58.6333 103.972 58.6333C101.383 58.6333 99.2838 60.7181 99.2838 63.2897C99.2838 65.8614 101.383 67.9462 103.972 67.9462Z" fill="#FF5001"/>
<path d="M122.502 64.3984C125.091 64.3984 127.191 62.3136 127.191 59.7419C127.191 57.1702 125.091 55.0854 122.502 55.0854C119.913 55.0854 117.814 57.1702 117.814 59.7419C117.814 62.3136 119.913 64.3984 122.502 64.3984Z" fill="#FF5001"/>
<path d="M141.032 60.8666C143.621 60.8666 145.72 58.7819 145.72 56.2102C145.72 53.6385 143.621 51.5537 141.032 51.5537C138.443 51.5537 136.344 53.6385 136.344 56.2102C136.344 58.7819 138.443 60.8666 141.032 60.8666Z" fill="#FF5001"/>
</svg>
