<svg width="233" height="60" viewBox="0 0 233 60" fill="none" xmlns="http://www.w3.org/2000/svg">
<g clip-path="url(#clip0_5_420)">
<path d="M17.5067 32.6414C13.8853 32.6414 10.9206 29.678 10.9206 26.0581V6.58331C10.9206 2.96343 13.8853 0 17.5067 0C21.1281 0 24.0928 2.96343 24.0928 6.58331V26.0581C24.0928 29.678 21.1281 32.6414 17.5067 32.6414Z" fill="#FF5001"/>
<path d="M1.55739 32.3038C1.38227 31.9162 1.21965 31.5223 1.06953 31.1222C1.21965 31.5223 1.38227 31.9162 1.55739 32.3038Z" fill="white"/>
<path d="M8.1185 39.8562C7.76198 39.6311 7.41798 39.3936 7.08023 39.1435C7.41798 39.3936 7.76824 39.6311 8.1185 39.8562Z" fill="white"/>
<path d="M3.85911 36.0425C3.57765 35.6924 3.3087 35.3298 3.05226 34.9547C3.3087 35.3298 3.57765 35.6924 3.85911 36.0425Z" fill="white"/>
<path d="M0.250186 28.0338C0.17513 27.5836 0.112584 27.1335 0.0688019 26.6771C0.112584 27.1335 0.17513 27.5899 0.250186 28.0338Z" fill="white"/>
<path d="M0.562921 29.4967C0.450338 29.0716 0.356519 28.6464 0.281464 28.2151C0.356519 28.6464 0.456593 29.0716 0.562921 29.4967Z" fill="white"/>
<path d="M1.00073 30.9222C0.856876 30.522 0.731783 30.1094 0.612946 29.6968C0.731783 30.1094 0.856876 30.522 1.00073 30.9222Z" fill="white"/>
<path d="M4.77852 37.0928C4.47205 36.7677 4.17808 36.4364 3.89662 36.0925C4.17808 36.4364 4.47205 36.7677 4.77852 37.0928Z" fill="white"/>
<path d="M3.00847 34.8984C2.75828 34.5296 2.52686 34.1482 2.3017 33.7606C2.52686 34.1482 2.75828 34.5296 3.00847 34.8984Z" fill="white"/>
<path d="M9.40069 40.6002C9.02541 40.4001 8.65639 40.1876 8.29362 39.9625C8.65639 40.1876 9.02541 40.4001 9.40069 40.6002Z" fill="white"/>
<path d="M2.23289 33.6355C2.02024 33.2604 1.82634 32.8728 1.64496 32.4852C1.82634 32.8728 2.02024 33.2604 2.23289 33.6355Z" fill="white"/>
<path d="M6.91762 39.0184C6.58612 38.7621 6.25463 38.4933 5.94189 38.2182C6.25463 38.4933 6.58612 38.7621 6.91762 39.0184Z" fill="white"/>
<path d="M5.79803 38.0932C5.47904 37.8056 5.17257 37.5117 4.87234 37.1991C5.17257 37.5055 5.47904 37.8056 5.79803 38.0932Z" fill="white"/>
<path d="M35.4074 44.6077L62.9653 38.7184L35.4137 44.6077H35.4074Z" fill="white"/>
<path d="M10.7517 41.2379C10.3451 41.0691 9.95109 40.8815 9.55705 40.6815C9.95109 40.8815 10.3451 41.0691 10.7517 41.2379Z" fill="white"/>
<path d="M12.1652 41.7631C11.7212 41.6193 11.2896 41.4567 10.8643 41.2816C11.2896 41.4567 11.7274 41.6193 12.1652 41.7631Z" fill="white"/>
<path d="M58.6746 9.17786L36.1017 13.2916L58.6746 9.17786Z" fill="white"/>
<path d="M0.0625462 26.5583C0.0250185 26.0769 0 25.5892 0 25.1016C0 25.5892 0.0250185 26.0769 0.0625462 26.5583Z" fill="white"/>
<path d="M13.535 42.1382C13.0784 42.0319 12.6281 41.9068 12.184 41.7693C12.6218 41.9068 13.0722 42.0319 13.535 42.1382Z" fill="white"/>
<path d="M1.82009 19.5436C3.1836 19.2935 4.43453 20.3438 4.43453 21.7255V19.0685L0 19.875V21.7255C0 20.6502 0.763064 19.7374 1.82009 19.5436Z" fill="white"/>
<path d="M5.94189 38.2182C5.89186 38.1744 5.84807 38.1369 5.80429 38.0931C5.84807 38.1307 5.89186 38.1744 5.94189 38.2182Z" fill="white"/>
<path d="M4.87235 37.1991C4.84108 37.1616 4.80981 37.1303 4.77228 37.0928C4.80981 37.1241 4.84108 37.1616 4.87235 37.1991Z" fill="white"/>
<path d="M12.1765 41.7624C12.1709 41.7624 12.1709 41.7624 12.1652 41.7568C12.1709 41.7624 12.1765 41.7624 12.1765 41.7624Z" fill="white"/>
<path d="M9.55706 40.6815C9.50702 40.6565 9.45073 40.6314 9.4007 40.6002C9.45699 40.6252 9.50702 40.6565 9.55706 40.6815Z" fill="white"/>
<path d="M10.8643 41.2816C10.8267 41.2691 10.7892 41.2504 10.7517 41.2379C10.7892 41.2566 10.8267 41.2691 10.8643 41.2816Z" fill="white"/>
<path d="M8.29363 39.9625C8.23734 39.925 8.18105 39.8937 8.12476 39.8562C8.18105 39.8937 8.23734 39.9312 8.29363 39.9625Z" fill="white"/>
<path d="M7.08022 39.1435C7.02393 39.0997 6.96764 39.0622 6.9176 39.0184C6.97389 39.0622 7.03019 39.0997 7.08022 39.1435Z" fill="white"/>
<path d="M1.63871 32.4789C1.6137 32.4226 1.58242 32.3601 1.5574 32.3038C1.58242 32.3664 1.6137 32.4226 1.63871 32.4789Z" fill="white"/>
<path d="M19.014 59.4061L34.3629 45.1516C34.6568 44.8765 35.0196 44.689 35.4074 44.6077L34.807 44.7327L19.014 59.4061Z" fill="white"/>
<path d="M0.0750565 26.6771C0.0688019 26.6396 0.0688019 26.5958 0.0688019 26.5583C0.0688019 26.5958 0.0688019 26.6396 0.0750565 26.6771Z" fill="white"/>
<path d="M1.07579 31.1222C1.05077 31.0534 1.02575 30.9909 1.00699 30.9221C1.02575 30.9909 1.05077 31.0534 1.07579 31.1222Z" fill="white"/>
<path d="M0.281456 28.2088C0.268947 28.1525 0.262692 28.09 0.250183 28.0338C0.262692 28.0963 0.268947 28.1525 0.281456 28.2088Z" fill="white"/>
<path d="M3.05225 34.9547C3.03974 34.9359 3.02723 34.9172 3.01472 34.8984C3.02098 34.9172 3.03974 34.9359 3.05225 34.9547Z" fill="white"/>
<path d="M2.30795 33.7606C2.28293 33.7168 2.25791 33.673 2.23289 33.6293C2.25166 33.6793 2.28293 33.7168 2.30795 33.7606Z" fill="white"/>
<path d="M0.619205 29.6968C0.600441 29.628 0.581677 29.5655 0.569168 29.4967C0.581677 29.5592 0.600441 29.628 0.619205 29.6968Z" fill="white"/>
<path d="M3.89663 36.0863C3.88412 36.0738 3.87161 36.055 3.8591 36.0363C3.87161 36.055 3.88412 36.0738 3.89663 36.0863Z" fill="white"/>
<path d="M63.916 4.52642C63.4156 4.10129 62.7463 3.92623 62.1021 4.04502L35.0134 8.98407L32.3989 9.46547C31.3482 9.65928 30.5788 10.5783 30.5788 11.6474V25.1079C30.5788 31.5599 25.8754 36.9178 19.7208 37.9744C19.0015 38.0994 18.2635 38.1744 17.5067 38.1744C16.7499 38.1744 16.0118 38.0994 15.2925 37.9744C9.13175 36.9115 4.43453 31.5536 4.43453 25.1016V21.7255C4.43453 20.3439 3.1836 19.2998 1.82009 19.5436C0.763064 19.7374 0 20.6502 0 21.7255V25.1016C0 25.5955 0.0250185 26.0769 0.0625462 26.5583C0.0688008 26.5958 0.0688008 26.6396 0.0688008 26.6771C0.112583 27.1335 0.168875 27.5899 0.250185 28.0338C0.262694 28.09 0.268949 28.1526 0.281458 28.2088C0.362768 28.6402 0.456587 29.0716 0.562916 29.4905C0.58168 29.5592 0.594189 29.6218 0.612953 29.6905C0.725536 30.1032 0.856883 30.5158 1.00074 30.9159C1.02576 30.9847 1.05078 31.0472 1.06954 31.116C1.21965 31.5161 1.37602 31.91 1.5574 32.2976C1.58242 32.3539 1.61369 32.4164 1.63871 32.4727C1.82009 32.8665 2.02024 33.2479 2.22664 33.623C2.25166 33.6793 2.28294 33.7168 2.30795 33.7606C2.52687 34.1482 2.76454 34.5295 3.01473 34.8984C3.02724 34.9172 3.03975 34.9359 3.05225 34.9547C3.30869 35.3298 3.57764 35.6924 3.8591 36.0425C3.87161 36.055 3.88412 36.0738 3.89663 36.0925C4.17809 36.4364 4.47205 36.774 4.77853 37.0929C4.8098 37.1304 4.84108 37.1616 4.8786 37.1991C5.17257 37.5055 5.4853 37.8056 5.80429 38.0932C5.84807 38.1369 5.89811 38.1807 5.94189 38.2182C6.26087 38.4995 6.58611 38.7621 6.91761 39.0185C6.9739 39.0622 7.02394 39.0997 7.08023 39.1435C7.41798 39.3936 7.76198 39.6311 8.1185 39.8562C8.17479 39.8937 8.23108 39.925 8.28737 39.9625C8.65014 40.1876 9.01916 40.4001 9.39444 40.6002C9.44448 40.6252 9.50077 40.6565 9.55081 40.6815C9.93859 40.8815 10.3389 41.0691 10.7454 41.2379C10.783 41.2504 10.8205 41.2692 10.858 41.2817C11.2833 41.4567 11.7212 41.6193 12.159 41.7631C12.1652 41.7631 12.1652 41.7631 12.1715 41.7693C12.6156 41.9131 13.0659 42.0319 13.5225 42.1382C14.0979 42.2757 14.6858 42.382 15.28 42.457V44.3076V57.7868C15.28 58.6683 15.7992 59.4623 16.606 59.8187C16.8937 59.9375 17.194 60 17.4942 60C18.0446 60 18.5825 59.7937 19.0015 59.4061L34.8007 44.739L35.4011 44.6139L62.9528 38.7184C63.9723 38.5058 64.704 37.5993 64.704 36.5552V6.22695C64.7166 5.5705 64.4226 4.9453 63.916 4.52642ZM60.282 10.5158V33.3104V34.7546L33.2933 40.5314C32.8993 40.6127 32.5365 40.8003 32.2488 41.0691L19.7208 52.704V42.457C28.3334 41.3629 35.0134 33.9981 35.0134 25.1016V14.5983V13.4917L36.1017 13.2917L58.6746 9.17788L60.282 8.88403V10.5158Z" fill="white"/>
<path d="M40.7801 26.8209C41.7957 26.8209 42.619 25.998 42.619 24.9828C42.619 23.9677 41.7957 23.1447 40.7801 23.1447C39.7645 23.1447 38.9413 23.9677 38.9413 24.9828C38.9413 25.998 39.7645 26.8209 40.7801 26.8209Z" fill="#FF5001"/>
<path d="M48.048 25.4204C49.0636 25.4204 49.8869 24.5975 49.8869 23.5824C49.8869 22.5672 49.0636 21.7443 48.048 21.7443C47.0324 21.7443 46.2091 22.5672 46.2091 23.5824C46.2091 24.5975 47.0324 25.4204 48.048 25.4204Z" fill="#FF5001"/>
<path d="M55.3159 24.0262C56.3314 24.0262 57.1547 23.2033 57.1547 22.1882C57.1547 21.173 56.3314 20.3501 55.3159 20.3501C54.3003 20.3501 53.477 21.173 53.477 22.1882C53.477 23.2033 54.3003 24.0262 55.3159 24.0262Z" fill="#FF5001"/>
<path d="M72.0782 35.1985C72.0782 36.2801 72.9601 37.1491 74.0422 37.1491C74.5738 37.1491 75.0679 36.9428 75.4495 36.5614L76.7317 37.7993C76.0186 38.5308 75.0617 38.9434 74.0484 38.9434C71.9844 38.9434 70.3019 37.2679 70.3019 35.1985C70.3019 33.1291 71.9782 31.4536 74.0484 31.4536C75.1367 31.4536 76.175 31.935 76.888 32.7665L75.537 33.9294C75.1618 33.4917 74.6114 33.2354 74.0484 33.2354C72.9601 33.2354 72.0782 34.1169 72.0782 35.1985Z" fill="#FF5001"/>
<path d="M82.9488 31.5286H84.7439V35.7112C84.7439 37.493 83.2865 38.9497 81.4914 38.9497C79.7089 38.9497 78.2516 37.493 78.2516 35.7112V31.5286H80.0341V35.7112C80.0341 36.5114 80.6971 37.1554 81.4914 37.1554C82.2983 37.1554 82.9488 36.5052 82.9488 35.7112V31.5286Z" fill="#FF5001"/>
<path d="M92.2869 38.8684L89.4661 31.5286H91.3988L93.2314 36.3301L95.0765 31.5286H97.0092L94.1758 38.8684H92.2869Z" fill="white"/>
<path d="M98.5791 31.5411H100.362V38.8496H98.5791V31.5411Z" fill="white"/>
<path d="M107.411 37.9681H104.421L104.077 38.8684H102.144L104.965 31.5411H106.854L109.687 38.8684H107.755L107.411 37.9681ZM106.729 36.1863L105.909 34.0669L105.103 36.1863H106.729Z" fill="white"/>
<path d="M116.367 31.5411V33.3229H114.059V38.8684H112.277V33.3229H109.969V31.5411H116.367Z" fill="white"/>
<path d="M122.265 37.9681H119.276L118.932 38.8684H116.999L119.82 31.5411H121.709L124.542 38.8684H122.609L122.265 37.9681ZM121.584 36.1863L120.764 34.0669L119.957 36.1863H121.584Z" fill="white"/>
<path d="M80.0091 19.1372H75.5933V25.8768C75.5933 26.8396 75.3682 27.5711 74.9116 28.0713C74.455 28.5714 73.8796 28.8153 73.1916 28.8153C72.466 28.8153 71.8843 28.5714 71.4403 28.0775C70.9962 27.5836 70.7773 26.8647 70.7773 25.9081V7.56488C70.7773 6.50204 71.0212 5.74556 71.5091 5.29542C71.9969 4.83902 72.7725 4.61395 73.8295 4.61395H80.0154C81.848 4.61395 83.2552 4.7515 84.2372 5.03283C85.2129 5.30167 86.0511 5.75181 86.7641 6.38326C87.4709 7.00845 88.015 7.77744 88.3778 8.69023C88.7406 9.60301 88.9282 10.6221 88.9282 11.7599C88.9282 14.1857 88.1839 16.0238 86.689 17.2742C85.1879 18.512 82.9675 19.1372 80.0091 19.1372ZM78.8395 8.22758H75.5933V15.5049H78.8395C79.9778 15.5049 80.9285 15.3861 81.6916 15.1485C82.4547 14.9109 83.0363 14.5233 83.4366 13.9794C83.8369 13.4355 84.0371 12.729 84.0371 11.8537C84.0371 10.8034 83.7306 9.94687 83.1114 9.29041C82.4171 8.58394 80.9911 8.22758 78.8395 8.22758Z" fill="white"/>
<path d="M103.426 4.20132C105.897 4.20132 108.017 4.70148 109.787 5.70179C111.557 6.70211 112.896 8.12755 113.809 9.97188C114.716 11.8162 115.173 13.9856 115.173 16.4739C115.173 18.312 114.922 19.9875 114.428 21.488C113.928 22.9947 113.184 24.2951 112.189 25.4017C111.195 26.5083 109.969 27.3523 108.518 27.9337C107.067 28.5152 105.403 28.809 103.533 28.809C101.669 28.809 100.005 28.5089 98.529 27.9087C97.0529 27.3085 95.827 26.4583 94.8451 25.3704C93.8631 24.2763 93.1125 22.9634 92.6122 21.4255C92.1118 19.8875 91.8553 18.2245 91.8553 16.4426C91.8553 14.6108 92.118 12.9353 92.6434 11.4098C93.1688 9.88435 93.9319 8.58394 94.9264 7.51486C95.9209 6.44578 97.1342 5.62052 98.5666 5.05784C99.9989 4.49517 101.613 4.20132 103.426 4.20132ZM110.281 16.4426C110.281 14.6984 110 13.1916 109.437 11.91C108.874 10.6283 108.067 9.66553 107.023 9.00908C105.978 8.35262 104.777 8.02752 103.426 8.02752C102.463 8.02752 101.575 8.20883 100.756 8.57144C99.9363 8.93405 99.2358 9.45922 98.6416 10.1532C98.0537 10.8471 97.5846 11.7287 97.2468 12.8103C96.9028 13.8856 96.734 15.0985 96.734 16.4364C96.734 17.7868 96.9028 19.0122 97.2468 20.1063C97.5846 21.2004 98.0724 22.1069 98.6916 22.8259C99.3171 23.5449 100.03 24.0825 100.837 24.4389C101.644 24.7953 102.532 24.9766 103.495 24.9766C104.727 24.9766 105.866 24.6702 106.898 24.0513C107.93 23.4323 108.755 22.482 109.368 21.1941C109.975 19.9125 110.281 18.3245 110.281 16.4426Z" fill="white"/>
<path d="M122.284 4.6077H128.57C130.202 4.6077 131.61 4.75774 132.779 5.06409C133.949 5.37044 135.012 5.93311 135.963 6.77087C138.44 8.89029 139.684 12.1163 139.684 16.4489C139.684 17.8806 139.559 19.181 139.309 20.3626C139.059 21.5442 138.677 22.6071 138.158 23.5511C137.639 24.5014 136.97 25.3454 136.163 26.0894C135.525 26.6646 134.825 27.121 134.068 27.4711C133.311 27.815 132.498 28.0588 131.622 28.2026C130.753 28.3401 129.771 28.4151 128.676 28.4151H122.39C121.515 28.4151 120.852 28.2839 120.408 28.015C119.964 27.7524 119.676 27.3773 119.538 26.8959C119.401 26.4145 119.338 25.7893 119.338 25.0203V7.56487C119.338 6.52705 119.57 5.77681 120.039 5.30792C120.495 4.83902 121.246 4.6077 122.284 4.6077ZM124.154 8.42139V24.5764H127.807C128.607 24.5764 129.239 24.5514 129.69 24.5139C130.146 24.4702 130.615 24.3639 131.103 24.1888C131.591 24.0138 132.01 23.7699 132.373 23.4573C133.986 22.0944 134.793 19.7437 134.793 16.4114C134.793 14.0607 134.437 12.3039 133.73 11.1347C133.023 9.96562 132.148 9.22164 131.109 8.90279C130.071 8.58394 128.814 8.42139 127.344 8.42139H124.154Z" fill="white"/>
<path d="M164.209 20.894C164.209 21.6505 164.021 22.4695 163.646 23.3511C163.271 24.2326 162.683 25.1016 161.882 25.9519C161.081 26.8021 160.056 27.4899 158.811 28.0213C157.566 28.5527 156.115 28.8153 154.458 28.8153C153.201 28.8153 152.062 28.6965 151.03 28.4589C149.998 28.2213 149.066 27.8525 148.228 27.3461C147.39 26.8397 146.615 26.1769 145.914 25.3579C145.289 24.614 144.751 23.7762 144.307 22.8509C143.863 21.9256 143.531 20.9378 143.306 19.8875C143.087 18.8372 142.974 17.7243 142.974 16.5427C142.974 14.6296 143.256 12.9103 143.812 11.3973C144.369 9.88435 145.17 8.58395 146.208 7.50861C147.246 6.43328 148.466 5.61427 149.861 5.05159C151.255 4.48892 152.744 4.20758 154.327 4.20758C156.253 4.20758 157.973 4.5952 159.474 5.35794C160.981 6.12693 162.132 7.07723 162.933 8.20883C163.733 9.34043 164.134 10.4095 164.134 11.4161C164.134 11.9663 163.94 12.4539 163.552 12.879C163.164 13.2979 162.689 13.5105 162.139 13.5105C161.519 13.5105 161.056 13.3667 160.75 13.0729C160.444 12.779 160.1 12.2789 159.718 11.5599C159.093 10.3783 158.348 9.49673 157.504 8.9153C156.653 8.33387 155.609 8.04003 154.364 8.04003C152.381 8.04003 150.805 8.79026 149.629 10.297C148.453 11.8037 147.865 13.9419 147.865 16.7115C147.865 18.5621 148.128 20.1 148.647 21.3317C149.166 22.5571 149.904 23.4761 150.855 24.0825C151.806 24.689 152.925 24.9953 154.201 24.9953C155.59 24.9953 156.76 24.6515 157.717 23.9638C158.673 23.276 159.399 22.2695 159.887 20.9378C160.093 20.3126 160.35 19.8 160.65 19.4061C160.95 19.0122 161.438 18.8121 162.113 18.8121C162.689 18.8121 163.183 19.0122 163.59 19.4123C164.002 19.8 164.209 20.3001 164.209 20.894Z" fill="white"/>
<path d="M183.779 25.7143L182.641 22.7259H172.959L171.821 25.7768C171.377 26.9647 170.995 27.7712 170.682 28.1901C170.37 28.6089 169.85 28.8153 169.137 28.8153C168.531 28.8153 167.993 28.5902 167.53 28.1526C167.067 27.7087 166.829 27.2085 166.829 26.6396C166.829 26.3145 166.886 25.9769 166.992 25.633C167.098 25.2892 167.28 24.8078 167.53 24.1888L173.622 8.73399C173.797 8.2901 174.004 7.75869 174.247 7.13349C174.491 6.50829 174.754 5.99564 175.029 5.58301C175.304 5.17038 175.667 4.83902 176.118 4.58269C176.568 4.32636 177.125 4.20132 177.781 4.20132C178.451 4.20132 179.013 4.32636 179.464 4.58269C179.914 4.83902 180.277 5.16412 180.552 5.56425C180.827 5.96437 181.059 6.39576 181.253 6.85215C181.44 7.3148 181.684 7.92749 181.978 8.69648L188.201 24.0575C188.689 25.2266 188.933 26.0769 188.933 26.6083C188.933 27.1585 188.702 27.6649 188.245 28.1275C187.782 28.5902 187.232 28.8153 186.582 28.8153C186.2 28.8153 185.875 28.7465 185.606 28.6152C185.337 28.4777 185.105 28.2963 184.924 28.065C184.743 27.8337 184.543 27.4773 184.33 26.9959C184.111 26.5083 183.93 26.0832 183.779 25.7143ZM174.229 19.106H181.34L177.75 9.28416L174.229 19.106Z" fill="white"/>
<path d="M210.562 21.2629C210.562 22.7008 210.193 23.995 209.448 25.1454C208.704 26.2957 207.622 27.1898 206.19 27.84C204.757 28.4902 203.062 28.8153 201.105 28.8153C198.753 28.8153 196.814 28.3714 195.288 27.4836C194.206 26.8459 193.324 25.9956 192.649 24.9265C191.973 23.8637 191.635 22.8259 191.635 21.8193C191.635 21.2379 191.842 20.7315 192.242 20.3189C192.649 19.9 193.168 19.6937 193.793 19.6937C194.3 19.6937 194.731 19.8562 195.082 20.1813C195.432 20.5064 195.732 20.9878 195.982 21.6255C196.282 22.382 196.614 23.0134 196.964 23.5261C197.314 24.0325 197.809 24.4576 198.453 24.7827C199.091 25.1141 199.929 25.2767 200.967 25.2767C202.399 25.2767 203.557 24.9453 204.451 24.2763C205.345 23.6136 205.789 22.7821 205.789 21.7818C205.789 20.9941 205.546 20.3501 205.064 19.8562C204.582 19.3623 203.957 18.9872 203.194 18.7309C202.431 18.4683 201.411 18.1932 200.129 17.9056C198.415 17.5055 196.989 17.0366 195.832 16.4989C194.681 15.9612 193.762 15.2298 193.086 14.3045C192.411 13.3792 192.073 12.2288 192.073 10.8534C192.073 9.54674 192.43 8.37763 193.143 7.36481C193.856 6.34574 194.894 5.56425 196.245 5.02033C197.596 4.47641 199.191 4.20132 201.017 4.20132C202.481 4.20132 203.744 4.38263 204.808 4.74524C205.871 5.10786 206.759 5.58926 207.466 6.18945C208.173 6.78963 208.685 7.42108 209.011 8.08379C209.336 8.74649 209.499 9.39045 209.499 10.0156C209.499 10.5908 209.298 11.1035 208.892 11.5661C208.485 12.0288 207.979 12.2538 207.372 12.2538C206.822 12.2538 206.402 12.1163 206.115 11.8412C205.827 11.5661 205.514 11.116 205.183 10.4845C204.751 9.58426 204.232 8.88404 203.625 8.38388C203.019 7.88372 202.043 7.62739 200.704 7.62739C199.46 7.62739 198.453 7.90248 197.69 8.4464C196.927 8.99032 196.545 9.65303 196.545 10.4158C196.545 10.8909 196.677 11.3035 196.933 11.6474C197.196 11.9913 197.552 12.2914 198.002 12.5414C198.459 12.7915 198.916 12.9853 199.385 13.1229C199.848 13.2667 200.617 13.4667 201.693 13.7418C203.037 14.0544 204.251 14.4045 205.339 14.7796C206.427 15.161 207.353 15.6174 208.116 16.1613C208.879 16.7052 209.473 17.3867 209.905 18.2119C210.349 19.0497 210.562 20.0625 210.562 21.2629Z" fill="white"/>
<path d="M230.114 8.58393H224.854V25.8768C224.854 26.8709 224.628 27.6086 224.184 28.09C223.74 28.5714 223.165 28.8153 222.464 28.8153C221.751 28.8153 221.17 28.5714 220.719 28.0838C220.269 27.5961 220.044 26.8584 220.044 25.8768V8.58393H214.784C213.958 8.58393 213.351 8.40263 212.951 8.04001C212.551 7.6774 212.351 7.196 212.351 6.60207C212.351 5.98312 212.557 5.49547 212.976 5.13911C213.395 4.78275 213.996 4.60144 214.79 4.60144H230.12C230.952 4.60144 231.571 4.78275 231.978 5.15161C232.384 5.52048 232.584 6.00188 232.584 6.59581C232.584 7.18975 232.378 7.67115 231.965 8.03376C231.559 8.40263 230.939 8.58393 230.114 8.58393Z" fill="white"/>
</g>
<defs>
<clipPath id="clip0_5_420">
<rect width="232.584" height="60" fill="white"/>
</clipPath>
</defs>
</svg>
