<svg width="32" height="32" viewBox="0 0 32 32" fill="none" xmlns="http://www.w3.org/2000/svg">
<rect width="32" height="32" rx="16" fill="#FF5001"/>
<g clip-path="url(#clip0_2_858)">
<path d="M11.6808 17.3365C10.5057 17.3365 9.54363 16.398 9.54363 15.2517V9.08471C9.54363 7.93842 10.5057 7 11.6808 7C12.8559 7 13.8179 7.93842 13.8179 9.08471V15.2517C13.8179 16.398 12.8559 17.3365 11.6808 17.3365Z" fill="white"/>
<path d="M6.50536 17.2295C6.44854 17.1068 6.39577 16.9821 6.34706 16.8553C6.39577 16.9821 6.44854 17.1068 6.50536 17.2295Z" fill="white"/>
<path d="M8.63438 19.6212C8.5187 19.5499 8.40707 19.4747 8.29748 19.3955C8.40707 19.4747 8.52073 19.5499 8.63438 19.6212Z" fill="white"/>
<path d="M7.25225 18.4134C7.16092 18.3026 7.07364 18.1878 6.99043 18.069C7.07364 18.1878 7.16092 18.3026 7.25225 18.4134Z" fill="white"/>
<path d="M6.08119 15.8774C6.05683 15.7348 6.03653 15.5923 6.02233 15.4478C6.03653 15.5923 6.05683 15.7368 6.08119 15.8774Z" fill="white"/>
<path d="M6.18266 16.3407C6.14613 16.206 6.11569 16.0714 6.09133 15.9348C6.11569 16.0714 6.14816 16.206 6.18266 16.3407Z" fill="white"/>
<path d="M6.32473 16.792C6.27805 16.6653 6.23746 16.5346 6.1989 16.4039C6.23746 16.5346 6.27805 16.6653 6.32473 16.792Z" fill="white"/>
<path d="M7.55059 18.7461C7.45115 18.6431 7.35576 18.5382 7.26442 18.4293C7.35576 18.5382 7.45115 18.6431 7.55059 18.7461Z" fill="white"/>
<path d="M6.97623 18.0511C6.89504 17.9343 6.81995 17.8135 6.74688 17.6908C6.81995 17.8135 6.89504 17.9343 6.97623 18.0511Z" fill="white"/>
<path d="M9.05045 19.8568C8.92867 19.7934 8.80893 19.726 8.69122 19.6548C8.80893 19.726 8.92867 19.7934 9.05045 19.8568Z" fill="white"/>
<path d="M6.72456 17.6513C6.65555 17.5325 6.59264 17.4097 6.53378 17.287C6.59264 17.4097 6.65555 17.5325 6.72456 17.6513Z" fill="white"/>
<path d="M8.24471 19.3558C8.13714 19.2747 8.02958 19.1895 7.92809 19.1024C8.02958 19.1895 8.13714 19.2747 8.24471 19.3558Z" fill="white"/>
<path d="M7.88141 19.0629C7.77791 18.9718 7.67846 18.8788 7.58103 18.7798C7.67846 18.8768 7.77791 18.9718 7.88141 19.0629Z" fill="white"/>
<path d="M17.4894 21.1257L26.4317 19.2607L17.4914 21.1257H17.4894Z" fill="white"/>
<path d="M9.48884 20.0586C9.35692 20.0052 9.22905 19.9458 9.10119 19.8824C9.22905 19.9458 9.35692 20.0052 9.48884 20.0586Z" fill="white"/>
<path d="M9.94751 20.225C9.80342 20.1794 9.66338 20.128 9.52536 20.0725C9.66338 20.128 9.80545 20.1794 9.94751 20.225Z" fill="white"/>
<path d="M25.0395 9.90637L17.7147 11.2091L25.0395 9.90637Z" fill="white"/>
<path d="M6.02024 15.4101C6.0081 15.2577 6 15.1033 6 14.9489C6 15.1033 6.0081 15.2577 6.02024 15.4101Z" fill="white"/>
<path d="M10.392 20.3438C10.2438 20.3102 10.0977 20.2706 9.95361 20.2271C10.0957 20.2706 10.2418 20.3102 10.392 20.3438Z" fill="white"/>
<path d="M7.92809 19.1025C7.91185 19.0886 7.89765 19.0767 7.88345 19.0629C7.89765 19.0747 7.91185 19.0886 7.92809 19.1025Z" fill="white"/>
<path d="M7.58103 18.7797C7.57089 18.7679 7.56074 18.758 7.54856 18.7461C7.56074 18.756 7.57089 18.7679 7.58103 18.7797Z" fill="white"/>
<path d="M9.95159 20.225C9.94955 20.225 9.94955 20.225 9.94751 20.223C9.94955 20.225 9.95159 20.225 9.95159 20.225Z" fill="white"/>
<path d="M9.10119 19.8824C9.08495 19.8744 9.06669 19.8666 9.05045 19.8567C9.06871 19.8646 9.08495 19.8744 9.10119 19.8824Z" fill="white"/>
<path d="M9.52537 20.0725C9.5132 20.0685 9.50102 20.0626 9.48884 20.0586C9.50102 20.0646 9.5132 20.0685 9.52537 20.0725Z" fill="white"/>
<path d="M8.69122 19.6547C8.67294 19.6428 8.65468 19.633 8.63642 19.6211C8.65468 19.633 8.67294 19.6448 8.69122 19.6547Z" fill="white"/>
<path d="M8.29748 19.3954C8.27921 19.3816 8.26095 19.3697 8.24471 19.3558C8.26297 19.3697 8.28124 19.3816 8.29748 19.3954Z" fill="white"/>
<path d="M6.53175 17.2849C6.52363 17.2671 6.51348 17.2473 6.50536 17.2295C6.51348 17.2493 6.52363 17.2671 6.53175 17.2849Z" fill="white"/>
<path d="M12.1699 25.8119L17.1505 21.298C17.2459 21.2109 17.3636 21.1515 17.4894 21.1257L17.2946 21.1654L12.1699 25.8119Z" fill="white"/>
<path d="M6.02435 15.4478C6.02233 15.4359 6.02233 15.422 6.02233 15.4102C6.02233 15.422 6.02233 15.4359 6.02435 15.4478Z" fill="white"/>
<path d="M6.34909 16.8553C6.34097 16.8336 6.33285 16.8138 6.32676 16.792C6.33285 16.8138 6.34097 16.8336 6.34909 16.8553Z" fill="white"/>
<path d="M6.0913 15.9328C6.08726 15.9149 6.08523 15.8951 6.08118 15.8773C6.08523 15.8971 6.08726 15.9149 6.0913 15.9328Z" fill="white"/>
<path d="M6.9905 18.0691C6.98642 18.0631 6.98234 18.0571 6.97825 18.0511C6.98029 18.0571 6.98642 18.0631 6.9905 18.0691Z" fill="white"/>
<path d="M6.74891 17.6909C6.7408 17.677 6.73268 17.6632 6.72456 17.6493C6.73065 17.6651 6.7408 17.677 6.74891 17.6909Z" fill="white"/>
<path d="M6.20088 16.404C6.19481 16.3823 6.18874 16.3625 6.18469 16.3407C6.18874 16.3605 6.19481 16.3823 6.20088 16.404Z" fill="white"/>
<path d="M7.2645 18.4275C7.26042 18.4235 7.25633 18.4175 7.25225 18.4115C7.25633 18.4175 7.26042 18.4235 7.2645 18.4275Z" fill="white"/>
<path d="M26.7402 8.43338C26.5778 8.29875 26.3607 8.24332 26.1516 8.28093L17.3615 9.84497L16.5132 9.9974C16.1722 10.0588 15.9226 10.3498 15.9226 10.6884V14.9508C15.9226 16.994 14.3963 18.6906 12.3992 19.0252C12.1658 19.0648 11.9264 19.0886 11.6808 19.0886C11.4352 19.0886 11.1957 19.0648 10.9623 19.0252C8.96318 18.6887 7.43897 16.992 7.43897 14.9489V13.8798C7.43897 13.4422 7.03305 13.1116 6.59061 13.1888C6.24761 13.2502 6 13.5392 6 13.8798V14.9489C6 15.1053 6.00812 15.2577 6.0203 15.4101C6.02233 15.422 6.02233 15.4359 6.02233 15.4478C6.03653 15.5923 6.0548 15.7368 6.08118 15.8774C6.08524 15.8952 6.08727 15.915 6.09133 15.9328C6.11772 16.0694 6.14816 16.206 6.18266 16.3387C6.18875 16.3604 6.19281 16.3802 6.1989 16.402C6.23543 16.5327 6.27805 16.6633 6.32473 16.7901C6.33285 16.8118 6.34097 16.8316 6.34706 16.8534C6.39577 16.9801 6.44651 17.1048 6.50536 17.2276C6.51348 17.2454 6.52363 17.2652 6.53175 17.283C6.59061 17.4077 6.65555 17.5285 6.72253 17.6473C6.73065 17.6651 6.74079 17.677 6.74891 17.6909C6.81995 17.8136 6.89707 17.9344 6.97826 18.0512C6.98231 18.0571 6.98637 18.0631 6.99043 18.069C7.07364 18.1878 7.16092 18.3026 7.25225 18.4135C7.25631 18.4174 7.26037 18.4234 7.26442 18.4293C7.35576 18.5382 7.45115 18.6451 7.55059 18.7461C7.56075 18.758 7.57089 18.7679 7.58307 18.7797C7.67846 18.8767 7.77993 18.9718 7.88345 19.0628C7.89765 19.0767 7.91389 19.0906 7.92809 19.1024C8.0316 19.1915 8.13714 19.2747 8.24471 19.3559C8.26297 19.3697 8.27921 19.3816 8.29748 19.3954C8.40707 19.4746 8.5187 19.5499 8.63439 19.6211C8.65266 19.633 8.67092 19.6429 8.68918 19.6548C8.8069 19.726 8.92665 19.7934 9.04842 19.8568C9.06465 19.8646 9.08293 19.8745 9.09915 19.8825C9.22499 19.9458 9.35488 20.0053 9.4868 20.0586C9.49898 20.0626 9.51116 20.0685 9.52334 20.0725C9.66136 20.128 9.80342 20.1794 9.94549 20.225C9.94752 20.225 9.94752 20.225 9.94955 20.227C10.0937 20.2725 10.2398 20.3101 10.3879 20.3438C10.5747 20.3873 10.7654 20.421 10.9583 20.4448V21.0308V25.2991C10.9583 25.5783 11.1267 25.8298 11.3885 25.9426C11.4819 25.9803 11.5793 26 11.6767 26C11.8553 26 12.0299 25.9346 12.1658 25.8119L17.2926 21.1674L17.4874 21.1278L26.4277 19.2608C26.7584 19.1935 26.9959 18.9064 26.9959 18.5758V8.97188C27 8.764 26.9047 8.56602 26.7402 8.43338ZM25.5611 10.33V17.5483V18.0056L16.8034 19.835C16.6756 19.8606 16.5578 19.9201 16.4645 20.0053L12.3992 23.6896V20.4448C15.194 20.0983 17.3615 17.7661 17.3615 14.9489V11.6228V11.2724L17.7147 11.209L25.0395 9.90634L25.5611 9.81329V10.33Z" fill="white"/>
<path d="M19.2328 15.4932C19.5623 15.4932 19.8295 15.2326 19.8295 14.9112C19.8295 14.5897 19.5623 14.3291 19.2328 14.3291C18.9033 14.3291 18.6361 14.5897 18.6361 14.9112C18.6361 15.2326 18.9033 15.4932 19.2328 15.4932Z" fill="white"/>
<path d="M21.5912 15.0497C21.9207 15.0497 22.188 14.7891 22.188 14.4677C22.188 14.1462 21.9207 13.8856 21.5912 13.8856C21.2617 13.8856 20.9945 14.1462 20.9945 14.4677C20.9945 14.7891 21.2617 15.0497 21.5912 15.0497Z" fill="white"/>
<path d="M23.9495 14.6083C24.279 14.6083 24.5462 14.3477 24.5462 14.0263C24.5462 13.7048 24.279 13.4442 23.9495 13.4442C23.62 13.4442 23.3529 13.7048 23.3529 14.0263C23.3529 14.3477 23.62 14.6083 23.9495 14.6083Z" fill="white"/>
</g>
<defs>
<clipPath id="clip0_2_858">
<rect width="21" height="19" fill="white" transform="translate(6 7)"/>
</clipPath>
</defs>
</svg>
