<svg width="16" height="16" viewBox="0 0 16 16" fill="none" xmlns="http://www.w3.org/2000/svg">
<path d="M10.2 1.44999C10.05 1.34999 9.85 1.39999 9.7 1.49999L4.85 4.99999H1.5C1.2 4.99999 1 5.19999 1 5.49999V10.5C1 10.8 1.2 11 1.5 11H4.85L9.7 14.55C9.8 14.6 9.9 14.65 10 14.65C10.1 14.65 10.15 14.65 10.25 14.6C10.4 14.5 10.5 14.35 10.5 14.15V1.89999C10.5 1.69999 10.4 1.49999 10.2 1.44999Z" fill="black"/>
<path d="M13.55 4.65C13.35 4.45 13.05 4.45 12.85 4.65C12.65 4.85 12.65 5.15 12.85 5.35C13.6 6.05 14 7 14 8C14 9 13.6 9.95 12.85 10.65C12.65 10.85 12.65 11.15 12.85 11.35C12.95 11.45 13.1 11.5 13.2 11.5C13.3 11.5 13.45 11.45 13.55 11.35C14.5 10.45 15 9.3 15 8C15 6.7 14.5 5.55 13.55 4.65Z" fill="black"/>
<path d="M12.35 6.34999C12.15 6.14999 11.85 6.14999 11.65 6.39999C11.45 6.59999 11.5 6.89999 11.7 7.09999C11.95 7.34999 12.1 7.69999 12.1 8.04999C12.1 8.39999 11.95 8.74999 11.7 8.99999C11.5 9.19999 11.5 9.49999 11.65 9.69999C11.75 9.79999 11.9 9.84999 12 9.84999C12.1 9.84999 12.25 9.79999 12.35 9.69999C12.85 9.24999 13.1 8.64999 13.1 8.04999C13.1 7.44999 12.8 6.74999 12.35 6.34999Z" fill="black"/>
</svg>
